<svg width="24"
    height="24"
    viewBox="0 0 24 24"
    fill="none"
    xmlns="http://www.w3.org/2000/svg">
    <path
        d="M14.7591 6.80397C14.1724 6.20681 13.4733 5.73172 12.7019 5.40614C11.9305 5.08056 11.1023 4.91096 10.2649 4.90711C9.42761 4.90327 8.59782 5.06526 7.82349 5.38374C7.04916 5.70221 6.34563 6.17086 5.75355 6.76262C5.16146 7.35437 4.69255 8.0575 4.3739 8.8314C4.05524 9.6053 3.89316 10.4346 3.897 11.2715C3.90085 12.1083 4.07056 12.9361 4.39631 13.7071C4.72207 14.478 5.19743 15.1768 5.79493 15.7631C6.98737 16.9332 8.59387 17.5853 10.2649 17.5776C11.936 17.57 13.5364 16.9031 14.7181 15.7221C15.8997 14.5412 16.5669 12.9416 16.5746 11.2715C16.5823 9.60135 15.9298 7.99575 14.7591 6.80397ZM4.41598 5.4258C5.9108 3.93218 7.92006 3.06572 10.0329 3.00359C12.1457 2.94146 14.2025 3.68836 15.7826 5.09155C17.3627 6.49475 18.3467 8.44823 18.5335 10.5525C18.7203 12.6568 18.0957 14.7529 16.7875 16.4122L22 21.6218L20.6211 23L15.4086 17.7904C13.7478 19.0931 11.6523 19.7134 9.54955 19.5249C7.44681 19.3364 5.49525 18.3532 4.09297 16.7759C2.69069 15.1986 1.94333 13.146 2.00335 11.0368C2.06338 8.9277 2.92626 6.92089 4.41598 5.4258Z"
        fill="#222222" />
</svg>
