<svg width="24"
    height="24"
    viewBox="0 0 24 24"
    fill="none"
    xmlns="http://www.w3.org/2000/svg">
    <g id="ic_cart_black">
        <path
            id="Vector"
            d="M12.0004 2C9.76637 2 7.93261 3.73385 7.93261 5.84615V6.61539H3.91525L3.86481 7.33692L3.05125 21.1831L3 22H21L20.9496 21.1823L20.136 7.33615L20.0847 6.61539H16.0682V5.84615C16.0682 3.73385 14.2344 2 12.0004 2ZM12.0004 3.53846C12.6477 3.53846 13.2685 3.78159 13.7262 4.21437C14.1839 4.64715 14.4411 5.23412 14.4411 5.84615V6.61539H9.55973V5.84615C9.55973 5.23412 9.81687 4.64715 10.2746 4.21437C10.7323 3.78159 11.3531 3.53846 12.0004 3.53846ZM5.44068 8.15385H7.93261V10.4615H9.55973V8.15385H14.4411V10.4615H16.0682V8.15385H18.5601L19.272 20.4615H4.72963L5.44068 8.15385Z"
            fill="#222222" />
    </g>
</svg>
